# xmcd
#
# Track frame offsets:
#	150
#	16839
#	27542
#	47181
#	65360
#	95914
#
# Disc length: 3125 seconds
#
# Revision: 1
# Processed by: cddbd v1.5.2PL0 Copyright (c) Steve Scherf et al.
# Submitted via: audiograbber 1.83.01
#
DISCID=4d0c3306
DTITLE=Broilers - Ruby Light and Dark
DYEAR=2008
DGENRE=Punk
TTITLE0=Ruby Light and Dark
TTITLE1=Geboren zu gewinnen
TTITLE2=Zusammen
TTITLE3=Woke up this morning
TTITLE4=Wenn du jetzt denkst - 08
TTITLE5=Data Track
EXTD=
EXTT0=
EXTT1=
EXTT2=
EXTT3=
EXTT4=
EXTT5=
PLAYORDER=
